<svg xmlns="http://www.w3.org/2000/svg" viewBox="0 0 24 24" fill="none" stroke="#d8e4f5" stroke-width="1.8" stroke-linecap="round" stroke-linejoin="round" aria-hidden="true">
  <circle cx="12" cy="12" r="3.25" />
  <path d="M19.4 15a1 1 0 0 0 .2 1.1l.1.1a1 1 0 0 1 0 1.4l-1.1 1.1a1 1 0 0 1-1.4 0l-.1-.1a1 1 0 0 0-1.1-.2 1 1 0 0 0-.6.9V20a1 1 0 0 1-1 1h-1.6a1 1 0 0 1-1-1v-.2a1 1 0 0 0-.6-.9 1 1 0 0 0-1.1.2l-.1.1a1 1 0 0 1-1.4 0L4.3 17.6a1 1 0 0 1 0-1.4l.1-.1a1 1 0 0 0 .2-1.1 1 1 0 0 0-.9-.6H3.5a1 1 0 0 1-1-1v-1.6a1 1 0 0 1 1-1h.2a1 1 0 0 0 .9-.6 1 1 0 0 0-.2-1.1l-.1-.1a1 1 0 0 1 0-1.4l1.1-1.1a1 1 0 0 1 1.4 0l.1.1a1 1 0 0 0 1.1.2 1 1 0 0 0 .6-.9V4a1 1 0 0 1 1-1h1.6a1 1 0 0 1 1 1v.2a1 1 0 0 0 .6.9 1 1 0 0 0 1.1-.2l.1-.1a1 1 0 0 1 1.4 0l1.1 1.1a1 1 0 0 1 0 1.4l-.1.1a1 1 0 0 0-.2 1.1 1 1 0 0 0 .9.6h.2a1 1 0 0 1 1 1v1.6a1 1 0 0 1-1 1h-.2a1 1 0 0 0-.9.6Z"/>
</svg>
